<?xml version="1.0" encoding="UTF-8"?>
<svg version="1.1" xmlns="http://www.w3.org/2000/svg" width="66" height="65">
<path d="M0 0 C2.97425059 2.38062444 4.70167809 3.97446905 5.8984375 7.64453125 C5.9190625 8.34578125 5.9396875 9.04703125 5.9609375 9.76953125 C6.6209375 9.76953125 7.2809375 9.76953125 7.9609375 9.76953125 C7.9815625 9.06828125 8.0021875 8.36703125 8.0234375 7.64453125 C9.43217655 3.32439817 12.13188908 1.10827566 15.9609375 -1.23046875 C20.2385698 -2.74563792 23.30881093 -2.41836963 27.6484375 -1.16796875 C33.54829635 2.28289209 35.81313428 5.69519348 37.7109375 12.08203125 C37.93265625 12.94441406 38.154375 13.80679688 38.3828125 14.6953125 C38.77045381 16.74281298 38.77045381 16.74281298 39.9609375 17.76953125 C39.51547409 23.22645808 38.00589019 27.70160502 35.9609375 32.76953125 C33.3209375 32.43953125 30.6809375 32.10953125 27.9609375 31.76953125 C27.6309375 32.75953125 27.3009375 33.74953125 26.9609375 34.76953125 C23.98853959 36.2557302 21.26474172 35.90130134 17.9609375 35.89453125 C16.07375 35.89839844 16.07375 35.89839844 14.1484375 35.90234375 C10.9609375 35.76953125 10.9609375 35.76953125 8.9609375 34.76953125 C9.14011719 34.11726563 9.31929687 33.465 9.50390625 32.79296875 C10.96894044 27.01336106 10.96894044 27.01336106 9.5859375 21.33203125 C9.0496875 20.48640625 8.5134375 19.64078125 7.9609375 18.76953125 C7.9609375 17.77953125 7.9609375 16.78953125 7.9609375 15.76953125 C7.3009375 15.76953125 6.6409375 15.76953125 5.9609375 15.76953125 C5.8371875 16.51203125 5.7134375 17.25453125 5.5859375 18.01953125 C4.9609375 20.76953125 4.9609375 20.76953125 3.8359375 22.70703125 C2.18289342 26.60349228 3.8976617 30.82022112 4.9609375 34.76953125 C2.02369972 36.23815014 -0.64498607 36.01746529 -3.9140625 36.08203125 C-5.14898438 36.11941406 -6.38390625 36.15679687 -7.65625 36.1953125 C-11.6421407 35.69362418 -12.41963205 34.64632932 -15.0390625 31.76953125 C-18.73338761 31.9156602 -18.73338761 31.9156602 -22.0390625 32.76953125 C-22.71663132 31.21172793 -23.38065707 29.64803029 -24.0390625 28.08203125 C-24.4103125 27.21191406 -24.7815625 26.34179688 -25.1640625 25.4453125 C-26.07734765 22.65245389 -26.34837801 20.68386333 -26.0390625 17.76953125 C-25.0490625 16.28453125 -25.0490625 16.28453125 -24.0390625 14.76953125 C-23.61316021 13.17308458 -23.22020207 11.56766454 -22.8515625 9.95703125 C-21.32424296 4.62699774 -18.82827892 1.56066598 -14.0390625 -1.23046875 C-9.21098111 -2.82715708 -4.37311839 -2.63895075 0 0 Z M-17.7265625 6.45703125 C-19.58684084 9.73466451 -20.25282573 13.10995647 -21.0390625 16.76953125 C-21.36803321 18.10394766 -21.70013579 19.43760874 -22.0390625 20.76953125 C-21.3790625 20.76953125 -20.7190625 20.76953125 -20.0390625 20.76953125 C-19.7090625 23.40953125 -19.3790625 26.04953125 -19.0390625 28.76953125 C-12.1090625 27.28453125 -12.1090625 27.28453125 -5.0390625 25.76953125 C-5.0390625 26.75953125 -5.0390625 27.74953125 -5.0390625 28.76953125 C-6.6890625 29.09953125 -8.3390625 29.42953125 -10.0390625 29.76953125 C-10.0390625 30.42953125 -10.0390625 31.08953125 -10.0390625 31.76953125 C-6.7390625 31.76953125 -3.4390625 31.76953125 -0.0390625 31.76953125 C-0.1009375 30.42890625 -0.1628125 29.08828125 -0.2265625 27.70703125 C-0.24865318 24.16699972 0.02985133 22.61516427 1.5234375 19.26953125 C3.3511159 14.81953167 3.44220563 11.35525353 1.9609375 6.76953125 C-1.03897007 3.69270298 -3.55605998 1.9013537 -7.8515625 1.51953125 C-12.24342748 1.86399125 -14.64644623 3.37691498 -17.7265625 6.45703125 Z M12.9609375 5.76953125 C11.05392815 8.79160254 10.75269426 10.74829372 11.2109375 14.26953125 C11.29859375 15.02234375 11.38625 15.77515625 11.4765625 16.55078125 C11.86498501 18.79895258 11.86498501 18.79895258 13 20.75390625 C14.68948572 24.29770557 14.07469893 27.90164247 13.9609375 31.76953125 C17.2609375 31.76953125 20.5609375 31.76953125 23.9609375 31.76953125 C23.9609375 31.10953125 23.9609375 30.44953125 23.9609375 29.76953125 C22.3109375 29.43953125 20.6609375 29.10953125 18.9609375 28.76953125 C18.9609375 27.77953125 18.9609375 26.78953125 18.9609375 25.76953125 C23.5809375 26.75953125 28.2009375 27.74953125 32.9609375 28.76953125 C33.2909375 26.12953125 33.6209375 23.48953125 33.9609375 20.76953125 C34.6209375 20.76953125 35.2809375 20.76953125 35.9609375 20.76953125 C34.14390158 10.57803829 34.14390158 10.57803829 27.9609375 2.76953125 C21.92324033 0.72720485 17.78187774 1.41892664 12.9609375 5.76953125 Z " fill="#516BAE" transform="translate(26.0390625,29.23046875)"/>
<path d="M0 0 C3.53662654 3.02086851 5.3107255 5.51160552 5.6875 10.125 C5.37770107 16.37439216 2.02881503 21.6725307 -1 27 C-1.66 27 -2.32 27 -3 27 C-3.33 27.99 -3.66 28.98 -4 30 C-5.875 30.8125 -5.875 30.8125 -8 31 C-8.99 30.34 -9.98 29.68 -11 29 C-11 28.34 -11 27.68 -11 27 C-11.66 27 -12.32 27 -13 27 C-20.88023344 13.13923225 -20.88023344 13.13923225 -19 6 C-17.17539313 2.42007512 -14.7416437 0.39554331 -11.1875 -1.5 C-6.98697638 -2.15890567 -3.86691214 -1.78656105 0 0 Z M-14 5 C-15.45219377 6.90168356 -15.45219377 6.90168356 -16 9 C-15.67 9.99 -15.34 10.98 -15 12 C-13.9275 11.484375 -12.855 10.96875 -11.75 10.4375 C-8.30185888 8.97255828 -8.30185888 8.97255828 -5.9375 9.1875 C-5.298125 9.455625 -4.65875 9.72375 -4 10 C-2.9275 10.350625 -1.855 10.70125 -0.75 11.0625 C0.1575 11.371875 1.065 11.68125 2 12 C1.55558072 7.8956293 1.55558072 7.8956293 -0.125 4.1875 C-5.03732552 1.07636051 -9.60569097 1.35900109 -14 5 Z M-15 14 C-13.68 16.31 -12.36 18.62 -11 21 C-10.67 21 -10.34 21 -10 21 C-9.67 18.69 -9.34 16.38 -9 14 C-10.98 14 -12.96 14 -15 14 Z M-5 14 C-4.67 16.31 -4.34 18.62 -4 21 C-1.65941363 18.87219421 -0.29299694 16.88437779 1 14 C-0.98 14 -2.96 14 -5 14 Z " fill="#199AC6" transform="translate(40,2)"/>
</svg>
