<?xml version="1.0" encoding="UTF-8"?>
<svg version="1.1" xmlns="http://www.w3.org/2000/svg" width="65" height="65">
<path d="M0 0 C2.70139704 3.20165575 2.51671775 6.92684335 2.6875 11 C1.6975 11.33 0.7075 11.66 -0.3125 12 C-1.53119929 14.50447516 -1.53119929 14.50447516 -2.3125 17 C-1.68601562 17.18175781 -1.05953125 17.36351563 -0.4140625 17.55078125 C0.40320313 17.80214844 1.22046875 18.05351562 2.0625 18.3125 C3.28066406 18.67794922 3.28066406 18.67794922 4.5234375 19.05078125 C6.6875 20 6.6875 20 8.6875 23 C8.8828125 25.48046875 8.8828125 25.48046875 8.8125 28.1875 C8.79445313 29.08855469 8.77640625 29.98960938 8.7578125 30.91796875 C8.73460938 31.60503906 8.71140625 32.29210938 8.6875 33 C7.79546875 33.06058594 6.9034375 33.12117188 5.984375 33.18359375 C4.81390625 33.26738281 3.6434375 33.35117187 2.4375 33.4375 C1.27734375 33.51871094 0.1171875 33.59992187 -1.078125 33.68359375 C-4.19116968 33.90649289 -4.19116968 33.90649289 -6.671875 34.59765625 C-7.48398437 34.79681641 -7.48398437 34.79681641 -8.3125 35 C-8.6425 34.67 -8.9725 34.34 -9.3125 34 C-11.49542774 33.76518307 -13.68453174 33.58636677 -15.875 33.4375 C-17.67130859 33.31181641 -17.67130859 33.31181641 -19.50390625 33.18359375 C-20.89416016 33.09271484 -20.89416016 33.09271484 -22.3125 33 C-22.93148212 23.99037139 -22.93148212 23.99037139 -20.75 20.5 C-17.71414004 18.63177848 -14.77260936 17.79848678 -11.3125 17 C-12.09380071 14.50447516 -12.09380071 14.50447516 -13.3125 12 C-14.3025 11.67 -15.2925 11.34 -16.3125 11 C-16.3125 7.7 -16.3125 4.4 -16.3125 1 C-10.11837625 -1.66988093 -6.42900662 -2.78011097 0 0 Z M-13.3125 3 C-13.3125 4.32 -13.3125 5.64 -13.3125 7 C-8.9947542 6.49202991 -5.27947886 5.80317221 -1.3125 4 C-5.80169147 0.28480706 -8.09259717 0.74274472 -13.3125 3 Z M-11.3125 9 C-10.73905063 11.86724686 -10.4510485 12.8614515 -8.3125 15 C-5.37796739 14.63318342 -4.44812754 14.13562754 -2.3125 12 C-2.63291397 9.39719432 -2.63291397 9.39719432 -3.3125 7 C-5.94826683 7 -8.79763411 8.26840265 -11.3125 9 Z M-0.3125 21 C-2.47891665 22.66545339 -2.47891665 22.66545339 -4.3125 25 C-4.17224801 27.70705512 -4.17224801 27.70705512 -3.3125 30 C-0.3425 30 2.6275 30 5.6875 30 C5.6875 27.69 5.6875 25.38 5.6875 23 C3.7075 22.34 1.7275 21.68 -0.3125 21 Z M-14.3125 21 C-15.9625 21.66 -17.6125 22.32 -19.3125 23 C-19.3125 25.31 -19.3125 27.62 -19.3125 30 C-16.3425 30 -13.3725 30 -10.3125 30 C-9.9825 28.35 -9.6525 26.7 -9.3125 25 C-10.9625 23.68 -12.6125 22.36 -14.3125 21 Z M-7.3125 29 C-6.3125 32 -6.3125 32 -6.3125 32 Z " fill="#2B8FDF" transform="translate(39.3125,2)"/>
<path d="M0 0 C1.67542976 0.28604898 3.34385343 0.61781233 5 1 C6.4545499 5.36364971 5.70305389 9.28519716 5.25 13.8125 C5.17523438 14.70259766 5.10046875 15.59269531 5.0234375 16.50976562 C4.4105481 22.77330961 2.93266494 27.20837286 -0.6875 32.4375 C-2.37926324 35.74046632 -2.14079015 38.33945606 -2 42 C-3 43 -3 43 -5.90625 43.1328125 C-7.0921875 43.13023438 -8.278125 43.12765625 -9.5 43.125 C-10.6859375 43.12757812 -11.871875 43.13015625 -13.09375 43.1328125 C-16 43 -16 43 -17 42 C-17.54248007 31.98396553 -16.03697158 25.53920439 -10.10546875 17.29296875 C-8 15 -8 15 -5.84375 14.0546875 C-3.69218269 13.08751892 -3.69218269 13.08751892 -2.98828125 10.21484375 C-2.76527344 9.13332031 -2.54226562 8.05179688 -2.3125 6.9375 C-1.06193353 1.06193353 -1.06193353 1.06193353 0 0 Z M2 3 C-0.12001798 7.73348842 -0.96528404 12.58123221 -1.85546875 17.6484375 C-2.48400432 21.02766102 -3.06245817 23.09368726 -5 26 C-5.99 26.33 -6.98 26.66 -8 27 C-6.92578125 25.30729167 -5.8515625 23.61458333 -4.77734375 21.921875 C-3.8157617 19.54449627 -4.16416673 18.37607949 -5 16 C-11.18818152 23.59791228 -11.18818152 23.59791228 -13.5 32.75 C-13.2525 34.35875 -13.2525 34.35875 -13 36 C-9.75643424 36.75413353 -9.75643424 36.75413353 -6 36 C2.88354155 27.69799954 2.32161184 14.22910925 3 3 C2.67 3 2.34 3 2 3 Z M-14 39 C-14 39.33 -14 39.66 -14 40 C-11.03 40 -8.06 40 -5 40 C-5 39.67 -5 39.34 -5 39 C-7.97 39 -10.94 39 -14 39 Z " fill="#6460F1" transform="translate(54,22)"/>
<path d="M0 0 C1.65 0.33 3.3 0.66 5 1 C5.15855469 1.83144531 5.31710938 2.66289062 5.48046875 3.51953125 C5.71378906 4.60621094 5.94710938 5.69289063 6.1875 6.8125 C6.40792969 7.89144531 6.62835938 8.97039063 6.85546875 10.08203125 C8.27688546 13.70591618 9.64376527 14.19433571 13 16 C20.13396385 23.80803918 21.42676112 31.7844056 21 42 C20 43 20 43 17.09375 43.1328125 C15.9078125 43.13023438 14.721875 43.12765625 13.5 43.125 C12.3140625 43.12757812 11.128125 43.13015625 9.90625 43.1328125 C7 43 7 43 6 42 C6.12375 40.4840625 6.12375 40.4840625 6.25 38.9375 C5.99916907 34.98691285 5.76899018 34.30907108 3.625 31.3125 C0.1556171 26.22603185 -0.34845202 21.01941484 -1 15 C-1.1340625 13.90042969 -1.268125 12.80085938 -1.40625 11.66796875 C-2.28336809 3.42505214 -2.28336809 3.42505214 0 0 Z M1 3 C1.22194101 6.35663227 1.48262765 9.70920513 1.75 13.0625 C1.811875 14.00544922 1.87375 14.94839844 1.9375 15.91992188 C2.44880886 22.03432364 3.59075388 25.89609938 7 31 C7.433125 31.969375 7.86625 32.93875 8.3125 33.9375 C8.869375 34.618125 9.42625 35.29875 10 36 C13.62599422 36.41725678 13.62599422 36.41725678 17 36 C18.16732211 28.41240629 15.09819303 24.44329855 10.75 18.34375 C10.1725 17.5703125 9.595 16.796875 9 16 C8.16416673 18.37607949 7.8157617 19.54449627 8.77734375 21.921875 C9.16019531 22.52515625 9.54304688 23.1284375 9.9375 23.75 C10.618125 24.8225 11.29875 25.895 12 27 C9 26 9 26 7.41015625 23.45703125 C5.80945865 19.53288339 5.0783216 15.85473633 4.4375 11.6875 C4.03497052 9.0906098 3.56631832 6.57067005 3 4 C2.34 3.67 1.68 3.34 1 3 Z M9 39 C9 39.33 9 39.66 9 40 C11.97 40 14.94 40 18 40 C18 39.67 18 39.34 18 39 C15.03 39 12.06 39 9 39 Z " fill="#6460F1" transform="translate(7,22)"/>
</svg>
