<svg xmlns="http://www.w3.org/2000/svg" version="1.1" xmlns:xlink="http://www.w3.org/1999/xlink" xmlns:svgjs="http://svgjs.dev/svgjs" width="2000" height="1500" viewBox="0 0 2000 1500"><rect width="2000" height="1500" fill="#ffffff"></rect><g transform="matrix(0.75,0,0,0.75,249.090909090909,401.8894574287327)"><svg viewBox="0 0 396 183" data-background-color="#ffffff" preserveAspectRatio="xMidYMid meet" height="924" width="2000" xmlns="http://www.w3.org/2000/svg" xmlns:xlink="http://www.w3.org/1999/xlink"><g id="tight-bounds" transform="matrix(1,0,0,1,0.2400000000000091,0.42529479154677574)"><svg viewBox="0 0 395.52 182.14941041690645" height="182.14941041690645" width="395.52"><g><svg viewBox="0 0 397.4975999999999 183.06015746899095" height="182.14941041690645" width="395.52"><g><rect width="397.4975999999999" height="5.606890843941771" x="0" y="100.60181512673223" fill="#2e30ff" opacity="1" stroke-width="0" stroke="transparent" fill-opacity="1" class="rect-yte-0" data-fill-palette-color="secondary" rx="1%" id="yte-0" data-palette-color="#2e30ff"></rect></g><g transform="matrix(1,0,0,1,0.9887999999999693,120.88643069303465)"><svg viewBox="0 0 395.52 62.17372677595628" height="62.17372677595628" width="395.52"><g id="textblocktransform"><svg viewBox="0 0 395.52 62.17372677595628" height="62.17372677595628" width="395.52" id="textblock"><g><svg viewBox="0 0 395.52 62.17372677595628" height="62.17372677595628" width="395.52"><g transform="matrix(1,0,0,1,0,0)"><svg width="395.52" viewBox="5.35 -42.3 274.47999999999996 43.15" height="62.17372677595628" data-palette-color="#2e30ff"><path d="M35.35-37.9L40.7-37.9 40.7 0 35.85 0 35.85-30.55 24.25-14.4 21.7-14.4 10.2-30.55 10.2 0 5.35 0 5.35-37.9 10.65-37.9 23-20.6 35.35-37.9ZM53.75-13.45Q53.85-8.85 56.05-6.1 58.25-3.35 63.05-3.35L63.05-3.35Q66.7-3.35 71.05-5.4L71.05-5.4 72.5-1.5Q67.95 0.85 62.65 0.85L62.65 0.85Q58.25 0.85 55.15-1 52.05-2.85 50.45-6.15 48.85-9.45 48.85-13.85L48.85-13.85Q48.85-18.5 50.52-21.78 52.2-25.05 55.05-26.75 57.9-28.45 61.45-28.45L61.45-28.45Q66.9-28.45 70-25.05 73.1-21.65 73.1-15.3L73.1-15.3 73.1-13.45 53.75-13.45ZM61.45-24.25Q55.25-24.25 54.05-17.4L54.05-17.4 68.15-17.4Q67.9-20.9 66.25-22.58 64.6-24.25 61.45-24.25L61.45-24.25ZM92.95-28.25Q98.05-28.25 100.52-25.55 103-22.85 103-16.65L103-16.65 103 0 98.3 0 98.3-16.65Q98.3-20.55 96.97-22.2 95.65-23.85 92.3-23.85L92.3-23.85Q88.4-23.85 84.5-20.45L84.5-20.45 84.5 0 79.8 0 79.8-27.65 84.5-27.65 84.5-24.7Q88.6-28.25 92.95-28.25L92.95-28.25ZM123.79-22.95L117.39-22.95 117.39-7.15Q117.39-5.15 118.02-4.42 118.64-3.7 120.34-3.7L120.34-3.7Q121.84-3.7 123.54-4.1L123.54-4.1 123.54 0.15Q121.29 0.65 119.54 0.65L119.54 0.65Q115.74 0.65 114.22-0.9 112.69-2.45 112.69-6.1L112.69-6.1 112.69-22.95 109.09-22.95 109.09-27.3 112.69-27.3 112.69-36.8 117.39-36.8 117.39-27.3 123.79-27.3 123.79-22.95ZM142.34 0.85Q137.94 0.85 134.87-1.07 131.79-3 130.24-6.33 128.69-9.65 128.69-13.8L128.69-13.8Q128.69-17.95 130.24-21.28 131.79-24.6 134.87-26.53 137.94-28.45 142.34-28.45L142.34-28.45Q146.74-28.45 149.82-26.53 152.89-24.6 154.42-21.28 155.94-17.95 155.94-13.8L155.94-13.8Q155.94-9.65 154.42-6.33 152.89-3 149.82-1.07 146.74 0.85 142.34 0.85L142.34 0.85ZM142.34-3.4Q146.49-3.4 148.77-6.3 151.04-9.2 151.04-13.8L151.04-13.8Q151.04-18.4 148.77-21.28 146.49-24.15 142.34-24.15L142.34-24.15Q138.19-24.15 135.89-21.28 133.59-18.4 133.59-13.8L133.59-13.8Q133.59-9.2 135.89-6.3 138.19-3.4 142.34-3.4L142.34-3.4ZM176.29-28.25L177.44-28.25 177.44-23.85 176.29-23.85Q171.99-23.85 167.94-20.4L167.94-20.4 167.94 0 163.24 0 163.24-27.65 167.94-27.65 167.94-24.55Q172.04-28.25 176.29-28.25L176.29-28.25ZM208.24-37.9L213.09-37.9 213.09 0 208.24 0 208.24-16.85 189.14-16.85 189.14 0 184.29 0 184.29-37.9 189.14-37.9 189.14-21.25 208.24-21.25 208.24-37.9ZM241.18-27.65L245.88-27.65 245.88 0 241.18 0 241.18-2.95Q237.08 0.6 232.73 0.6L232.73 0.6Q227.63 0.6 225.16-2.1 222.68-4.8 222.68-10.95L222.68-10.95 222.68-27.65 227.38-27.65 227.38-10.95Q227.38-7.05 228.71-5.4 230.03-3.75 233.38-3.75L233.38-3.75Q237.28-3.75 241.18-7.15L241.18-7.15 241.18-27.65ZM267.58-28.45Q273.18-28.45 276.51-24.7 279.83-20.95 279.83-13.8L279.83-13.8Q279.83-6.65 276.51-2.9 273.18 0.85 267.58 0.85L267.58 0.85Q263.53 0.85 259.58-2.5L259.58-2.5 259.58 0 254.88 0 254.88-42.3 259.58-42.3 259.58-25.05Q263.58-28.45 267.58-28.45L267.58-28.45ZM266.93-3.5Q270.88-3.5 272.93-6.13 274.98-8.75 274.98-13.8L274.98-13.8Q274.98-18.85 272.93-21.45 270.88-24.05 266.93-24.05L266.93-24.05Q263.18-24.05 259.58-20.95L259.58-20.95 259.58-6.6Q263.28-3.5 266.93-3.5L266.93-3.5Z" opacity="1" transform="matrix(1,0,0,1,0,0)" fill="#2e30ff" class="wordmark-text-0" data-fill-palette-color="primary" id="text-0"></path></svg></g></svg></g></svg></g></svg></g><g transform="matrix(1,0,0,1,144.7335090024015,0)"><svg viewBox="0 0 108.03058199519697 85.92409040437158" height="85.92409040437158" width="108.03058199519697"><g><svg xmlns="http://www.w3.org/2000/svg" xmlns:xlink="http://www.w3.org/1999/xlink" version="1.1" x="8" y="0" viewBox="0 -0.03171479540998767 100 93.36471479540998" enable-background="new 0 0 100 93.333" xml:space="preserve" id="icon-0" width="92.03058199519697" height="85.92409040437158" class="icon-icon-0" data-fill-palette-color="accent"><g fill="#fe5200" data-fill-palette-color="accent"><circle cx="47.778" cy="8.889" r="8.9" fill="#fe5200" data-fill-palette-color="accent"></circle></g><g fill="#fe5200" data-fill-palette-color="accent"><circle cx="22.222" cy="51.111" r="11" fill="#fe5200" data-fill-palette-color="accent"></circle></g><g fill="#fe5200" data-fill-palette-color="accent"><circle cx="77.778" cy="51.111" r="11" fill="#fe5200" data-fill-palette-color="accent"></circle></g><g fill="#fe5200" data-fill-palette-color="accent"><path d="M62.551 16.541C61.254 17.848 60.479 20.747 61.785 22.044S65.985 22.545 67.282 21.238A3.334 3.334 0 0 0 62.551 16.541" fill="#fe5200" data-fill-palette-color="accent"></path></g><g fill="#fe5200" data-fill-palette-color="accent"><path d="M60.22 23.62C59.243 22.65 58.875 21.361 58.902 20.042 57.985 20.003 56.893 20 55.556 20H41.111C33.333 20 33.333 20 33.333 27.778 33.333 28.613 33.335 29.342 33.344 30.008 33.391 30.007 33.438 30 33.484 30 34.871 30 36.058 30.452 36.919 31.306 38.055 32.434 38.371 33.993 38.193 35.528 39.022 35.552 39.975 35.555 41.111 35.555H55.555C63.333 35.555 63.333 35.555 63.333 27.777 63.333 26.658 63.33 25.716 63.307 24.896 62.074 24.826 61.006 24.4 60.22 23.62" fill="#fe5200" data-fill-palette-color="accent"></path></g><path d="M22.222 64.444C19.24 64.444 16.493 63.448 14.269 61.787 8.22 62.597 2.045 67.967 2.045 74.563L0 93.333 23.523 92.963 25.568 74.63C26.189 70.922 24.897 66.988 22.351 64.438 22.308 64.438 22.266 64.444 22.222 64.444" fill="#fe5200" data-fill-palette-color="accent"></path><path d="M97.955 74.563C97.955 67.967 91.78 62.597 85.731 61.787A13.25 13.25 0 0 1 77.778 64.444C77.734 64.444 77.692 64.438 77.649 64.437 75.102 66.987 73.811 70.921 74.432 74.629L76.477 92.962 100 93.333z" fill="#fe5200" data-fill-palette-color="accent"></path><path d="M54.202 82.077C54.452 82.693 54.227 83.244 53.673 83.244H45.649C45.095 83.244 44.87 82.693 45.12 82.077 45.345 81.522 45.884 81.111 46.342 81.111H52.979C53.438 81.111 53.976 81.522 54.202 82.077" fill="#fe5200" data-fill-palette-color="accent"></path><path d="M55.599 86.017C55.926 86.864 55.632 87.622 54.909 87.622H44.431C43.708 87.622 43.414 86.864 43.741 86.017 44.035 85.254 44.738 84.689 45.337 84.689H54.003C54.601 84.689 55.304 85.254 55.599 86.017" fill="#fe5200" data-fill-palette-color="accent"></path><path d="M57.806 90.372C58.231 91.219 57.849 91.977 56.909 91.977H43.292C42.352 91.977 41.97 91.219 42.395 90.372 42.778 89.609 43.691 89.044 44.469 89.044H55.732C56.509 89.045 57.423 89.609 57.806 90.372" fill="#fe5200" data-fill-palette-color="accent"></path><path d="M66.223 82.322C66.473 82.938 66.248 83.489 65.694 83.489H57.67C57.116 83.489 56.891 82.938 57.141 82.322 57.367 81.767 57.905 81.356 58.363 81.356H65C65.459 81.356 65.998 81.767 66.223 82.322" fill="#fe5200" data-fill-palette-color="accent"></path><path d="M69.974 86.262C70.31 87.109 70.008 87.867 69.265 87.867H58.502C57.759 87.867 57.457 87.109 57.793 86.262 58.095 85.499 58.818 84.934 59.432 84.934H68.334C68.949 84.934 69.672 85.499 69.974 86.262" fill="#fe5200" data-fill-palette-color="accent"></path><path d="M73.356 90.617C73.725 91.464 73.393 92.222 72.578 92.222H60.765C59.949 92.222 59.618 91.464 59.987 90.617 60.319 89.854 61.112 89.289 61.786 89.289H71.557C72.232 89.289 73.024 89.854 73.356 90.617" fill="#fe5200" data-fill-palette-color="accent"></path><path d="M41.98 82.322C42.23 82.938 42.005 83.489 41.451 83.489H33.427C32.873 83.489 32.648 82.938 32.898 82.322 33.123 81.767 33.662 81.356 34.12 81.356H40.757C41.216 81.356 41.754 81.767 41.98 82.322" fill="#fe5200" data-fill-palette-color="accent"></path><path d="M41.119 86.262C41.425 87.109 41.15 87.867 40.472 87.867H30.654C29.976 87.867 29.701 87.109 30.007 86.262 30.283 85.499 30.942 84.934 31.502 84.934H39.622C40.185 84.934 40.843 85.499 41.119 86.262" fill="#fe5200" data-fill-palette-color="accent"></path><path d="M40.012 90.617C40.379 91.464 40.049 92.222 39.237 92.222H27.467C26.654 92.222 26.325 91.464 26.692 90.617 27.023 89.854 27.813 89.289 28.485 89.289H38.22C38.892 89.289 39.682 89.854 40.012 90.617" fill="#fe5200" data-fill-palette-color="accent"></path><g fill="#fe5200" data-fill-palette-color="accent"><path d="M34.588 38.386C35.885 37.079 36.66 34.18 35.354 32.883S31.154 32.382 29.857 33.689A3.334 3.334 0 0 0 34.588 38.386" fill="#fe5200" data-fill-palette-color="accent"></path></g><rect x="37.778" y="37.778" width="22.222" height="10" fill="#fe5200" data-fill-palette-color="accent"></rect></svg></g></svg></g><g><rect width="68.20038900240151" height="5.606890843941771" y="79.31719956042981" x="252.76409099759846" fill="#2e30ff" data-fill-palette-color="secondary"></rect><rect width="68.20038900240151" height="5.606890843941771" y="79.31719956042981" x="76.53311999999997" fill="#2e30ff" data-fill-palette-color="secondary"></rect></g></svg></g><defs></defs></svg><rect width="395.52" height="182.14941041690645" fill="none" stroke="none" visibility="hidden"></rect></g></svg></g></svg>