<?xml version="1.0" encoding="UTF-8"?>
<svg version="1.1" viewBox="0 0 900 900" width="900" height="900" xmlns="http://www.w3.org/2000/svg">
<path transform="translate(0)" d="m0 0h900v900h-900z" fill="#FDFCFC"/>
<path transform="translate(98,165)" d="m0 0h27l10 5 6 7 9 17 8 16 15 28 18 35 10 19 24 46 11 20 8 16 14 27 12 22 10 19 10 22 3 7 6 1 2-6 9-21 10-20 9-16 8-16 16-31 12-22 12-24 10-18 8-16 18-35 10-19 13-24 8-16 8-14 7-6 7-3h27l9 2 14 5 12 8 10 9 10 14 5 11 3 10 1 11v131h206v-113l2-11 5-16 8-16 13-16 13-11 16-9 16-6 20-3 5 1v472h-10l-20-4-16-7-10-6-10-8-10-10-9-13-8-17-4-16-1-7-1-115-205-1v201l-4 4-12-1-15-4-16-8-12-9-8-8-10-14-6-13-4-16-1-11v-212l1-30-16 31-12 22-15 29-10 19-10 18-8 16-17 32-14 27-12 22-8 15-8 16-6 10-6 7-9 6-7 2h-32l-11-4-10-9-6-10-36-68-13-25-12-22-18-35-10-18-7-14-10-19-15-28-4-7v-2l-6 2v230l-2 14-4 14-6 12-9 13-10 10-10 7-16 8-15 4-12 1-4-4v-402l3-15 6-15 7-10 9-10 11-8 15-7 6-2z" fill="#FE8A00"/>
<path transform="translate(856,165)" d="m0 0 5 1v472h-10l-20-4-16-7-10-6-10-8-10-10-9-13-8-17-4-16-1-7-1-115-205-1v-68h206v-113l2-11 5-16 8-16 13-16 13-11 16-9 16-6z" fill="#0D629D"/>
<path transform="translate(440,696)" d="m0 0h8l11 4 7 7 3 7 1 10-2 8-6 9-8 5-4 1h-12l-10-4-7-8-3-7v-12l3-8 6-7 5-3z" fill="#02080C"/>
<path transform="translate(814,697)" d="m0 0h25l8 3 3 4 1 8-3 6-4 1 5 5 3 4v7l-4 7-7 4h-27l-1-2v-46z" fill="#020507"/>
<path transform="translate(36,697)" d="m0 0h12l14 27 1 4h2l1-4 13-26 1-1h12v49h-10l-1-30-12 23-2 2h-6l-3-3-10-19v-3h-2v30h-10z" fill="#020608"/>
<path transform="translate(523,697)" d="m0 0h24l7 3 5 6v11l-4 6-4 3 7 10 5 8v2h-13l-10-17-5-1v18h-12z" fill="#020A0F"/>
<path transform="translate(234,697)" d="m0 0h9l7 8 11 14 5 7 2 1v-30h10v49h-9l-9-10-10-13-4-5v-2h-2v30h-10z" fill="#020A0F"/>
<path transform="translate(616,697)" d="m0 0h12l1 20h18l1-20h12v49h-12v-21h-20v21h-12z" fill="#02090E"/>
<path transform="translate(715,697)" d="m0 0h12l1 34 1 4 9 2 6-3 2-6 1-31h11v34l-3 8-7 6-6 2h-11l-7-3-5-4-3-6-1-5z" fill="#02090D"/>
<path transform="translate(148,697)" d="m0 0h32v8l-20 1v10l14 1 1 1v8l-15 1v10l20 1v8h-32z" fill="#020609"/>
<path transform="translate(331,697)" d="m0 0h39v8l-1 1h-13v40h-11l-1-2v-37l-13-1-1-1v-7z" fill="#020609"/>
<path transform="translate(439,706)" d="m0 0h10l6 4 3 7v9l-3 7-5 4-9 1-7-3-4-7v-12l3-6z" fill="#FDFCFB"/>
<path transform="translate(825,725)" d="m0 0h11l5 5-2 6-3 2h-11z" fill="#FDFBFA"/>
<path transform="translate(535,705)" d="m0 0h7l5 3 1 1v7l-5 4h-8z" fill="#FDFCFB"/>
<path transform="translate(826,705)" d="m0 0h8l5 3v7l-5 3h-9v-12z" fill="#FDFBF9"/>
</svg>
